<svg xmlns="http://www.w3.org/2000/svg" viewBox="0 0 427.93 107.93"><defs><style>.cls-1{fill:#1d2a56;}.cls-2,.cls-3,.cls-4{fill:none;stroke-linecap:round;stroke-linejoin:round;stroke-width:3px;}.cls-2{stroke:#1d2a56;}.cls-3{stroke:#e48945;}.cls-4{stroke:#454545;}</style></defs><g id="croquis"><path class="cls-1" d="M120.64,27.62h3.21l16.19,46h-3.4l-9.18-27.07c-1.87-5.45-3.49-10.27-5.1-15.87h-.28c-1.61,5.61-3.22,10.42-5.09,15.87l-9.31,27.07h-3.23Zm-8.8,27.5h20.61v2.69H111.84Z"/><path class="cls-1" d="M147,40.09h2.61l.34,4.22h.15c3.27-2.63,7.25-5.05,11.37-5.05,9,0,13.4,6.72,13.4,17.08,0,11.37-6.86,18.08-14.76,18.08-3.18,0-6.58-1.5-10.07-4.11l.05,6.18V88.75H147Zm24.63,16.27C171.63,48.13,168.7,42,161,42c-3.32,0-6.85,1.95-10.89,5.52V67.38c3.78,3.14,7.32,4.31,9.86,4.31C166.75,71.69,171.63,65.44,171.63,56.36Z"/><path class="cls-1" d="M184.94,40.09h2.61l.33,4.22H188c3.27-2.63,7.25-5.05,11.36-5.05,9,0,13.41,6.72,13.41,17.08,0,11.37-6.87,18.08-14.76,18.08-3.18,0-6.58-1.5-10.07-4.11l0,6.18V88.75h-3.08Zm24.63,16.27c0-8.23-2.93-14.37-10.65-14.37-3.32,0-6.85,1.95-10.9,5.52V67.38c3.78,3.14,7.33,4.31,9.86,4.31C204.69,71.69,209.57,65.44,209.57,56.36Z"/><path class="cls-1" d="M222.81,69.09V23.41h3.08v46.1c0,1.5.62,2.19,1.45,2.19a5.28,5.28,0,0,0,1.26-.14l.51,2.51a6.66,6.66,0,0,1-2.21.35C224.21,74.42,222.81,72.76,222.81,69.09Z"/><path class="cls-1" d="M238.14,29.27a2.81,2.81,0,0,1,5.61,0,2.81,2.81,0,0,1-5.61,0Zm1.2,10.82h3.08v33.5h-3.08Z"/><path class="cls-1" d="M252.91,38.68c3.08-2.45,4.69-4.74,4.69-8.67l-1.14-3.8,2.61,2.9a2.3,2.3,0,0,1-2.05,1,2.68,2.68,0,1,1,0-5.36c1.87,0,3.13,1.63,3.13,4.66a12.28,12.28,0,0,1-6,10.88Z"/><path class="cls-1" d="M262.63,56.9c0-10.81,6.86-17.64,14.85-17.64,4,0,6.75,1.52,10.1,4.11l-.16-6.15V23.41h3.08V73.59h-2.61l-.34-4.34h-.15c-2.75,2.75-6.47,5.17-10.92,5.17C268.09,74.42,262.63,68.2,262.63,56.9Zm24.79,9.27V46.3c-3.53-3.14-6.48-4.31-9.77-4.31-6.65,0-11.78,6.5-11.78,14.9,0,8.91,4,14.8,11.06,14.8C280.62,71.69,283.9,69.75,287.42,66.17Z"/><path class="cls-1" d="M300.54,56.9c0-10.92,7.1-17.64,14.6-17.64,7.94,0,12.82,5.65,12.82,15.49a15.06,15.06,0,0,1-.17,2.51H303.71c.11,8.46,5.06,14.5,12.61,14.5a15.09,15.09,0,0,0,9-3l1.27,2.34A18.32,18.32,0,0,1,316,74.42C307.47,74.42,300.54,67.85,300.54,56.9Zm24.52-2.17c0-8.56-3.88-12.81-9.89-12.81-5.66,0-10.78,4.8-11.48,12.81Z"/><path class="cls-1" d="M337,40.09h2.61l.34,5.19h.15c3.42-3.4,6.9-6,11.52-6,6.92,0,10.12,4.2,10.12,12.84V73.59H358.7V52.51c0-7.1-2.24-10.48-7.63-10.48-4,0-6.87,2.11-10.95,6.29V73.59H337Z"/><path class="cls-1" d="M374.93,64.34V42.79H369.7v-2.4l5.3-.3.39-9.69H378v9.69h9.7v2.7H378V64.57c0,4.27,1.07,7.16,5.69,7.16a12.15,12.15,0,0,0,4.2-1.06l.8,2.5a19.23,19.23,0,0,1-5.46,1.25C376.81,74.42,374.93,70.34,374.93,64.34Z"/><path class="cls-2" d="M44.73,26c-2.87,0-8.56,2.81-6.41,11.9s3.15,7.78,3,11.76a128.51,128.51,0,0,0-.14,13.07C41.56,68,44.41,79,46.56,79s4.17-28.47,11.14-22.5"/><path class="cls-2" d="M67.62,26c2.86,0,8.7,2.81,6.55,11.9s-3.15,7.78-3,11.76"/><path class="cls-3" d="M62.29,26.82a10.8,10.8,0,0,1-12.09,0"/><path class="cls-4" d="M71.65,56.46s.07,6.17-11.43,5.36"/><path class="cls-4" d="M70.42,65.28s-1.2,4.15-8.7,3.35"/><path class="cls-4" d="M69.72,72.63a7.64,7.64,0,0,1-7,2"/><path class="cls-2" d="M42.39,88.46a41.91,41.91,0,0,1,29.71,0"/></g></svg>